# xmcd CD database file
#
# Track frame offsets:
#	150
#	15029
#	30560
#	42166
#	50162
#	64265
#	77619
#	102161
#	115781
#	143413
#	156913
#	170054
#	179834
#	204116
#	223498
#	242877
#
# Disc length: 3494 seconds
#
# Revision: 0
# Processed by: cddbd v1.5.2PL0 Copyright (c) Steve Scherf et al.
# Submitted via: CDex 1.51
#
DISCID=db0da410
DTITLE=Monica Zetterlund - Sakta vi gå genom stan, Det bästa med - CD3
DYEAR=2008
DGENRE=Jazz
TTITLE0=Sakta vi gå genom stan
TTITLE1=Monicas vals
TTITLE2=Hej jag är vamp
TTITLE3=Stick iväg Jack
TTITLE4=I´m a fool to want you
TTITLE5=Nu är det gott att leva
TTITLE6=I morron
TTITLE7=När min vän
TTITLE8=Den sista jäntan
TTITLE9=Once upon a summertime
TTITLE10=What are we wating for
TTITLE11=Siv Larssons dagbok
TTITLE12=Vad tänker han på?
TTITLE13=Under vinrankan
TTITLE14=Ska nya röster sjunga
TTITLE15=Underbart är kort
EXTD=YEAR: 2008
EXTT0=
EXTT1=
EXTT2=
EXTT3=
EXTT4=
EXTT5=
EXTT6=
EXTT7=
EXTT8=
EXTT9=
EXTT10=
EXTT11=
EXTT12=
EXTT13=
EXTT14=
EXTT15=
PLAYORDER=
